<svg xmlns="http://www.w3.org/2000/svg" width="439" height="141" viewBox="0 0 439 141">
  <g fill="none" fill-rule="evenodd">
    <path fill="#3C4758" d="M183.562745,65.1254905 L203.02353,65.1254905 C202.449042,59.4468616 199.145735,55.0058825 193.400854,55.0058825 C188.086839,55.0058825 184.352666,59.1556498 183.562745,65.1254905 Z M208.841119,82.6564435 C205.317532,85.7546287 200.913048,87.7000008 194.893586,87.7000008 C183.662152,87.7000008 175,79.70236 175,67.9580766 L175,67.813975 C175,56.9343014 182.854663,48 193.939282,48 C206.271837,48 212.364707,57.9430129 212.364707,66.7332127 C212.364707,69.1829405 210.456097,70.9121601 208.180447,70.9121601 L183.882376,70.9121601 C184.836681,77.1085305 189.314573,80.5669698 195.040403,80.5669698 C198.784214,80.5669698 201.720537,79.270055 204.216411,77.2526321 C204.877084,76.7482764 205.464348,76.4600731 206.492061,76.4600731 C208.474079,76.4600731 210.015648,77.9731403 210.015648,79.9905632 C210.015648,81.0713255 209.501792,82.0079861 208.841119,82.6564435 Z M220.927452,82.6287492 L220.927452,52.7221022 C220.927452,50.2895041 222.81779,48.357735 225.28977,48.357735 C227.76175,48.357735 229.724793,50.2895041 229.724793,52.7221022 L229.724793,54.5107772 C232.196773,51.1480681 235.541217,48 241.430346,48 C246.955948,48 250.882035,50.6472391 252.917783,54.6538712 C255.971405,50.6472391 260.042902,48 265.859326,48 C274.220435,48 279.309806,53.2229312 279.309806,62.4524945 L279.309806,82.6287492 C279.309806,85.0613473 277.419468,86.9215694 274.947488,86.9215694 C272.475508,86.9215694 270.512465,85.0613473 270.512465,82.6287492 L270.512465,65.0997336 C270.512465,59.0897854 267.676958,55.8701703 262.732998,55.8701703 C257.934448,55.8701703 254.517299,59.1613324 254.517299,65.2428276 L254.517299,82.6287492 C254.517299,85.0613473 252.554256,86.9215694 250.154982,86.9215694 C247.683001,86.9215694 245.719958,85.0613473 245.719958,82.6287492 L245.719958,65.0281866 C245.719958,59.1613324 242.811746,55.8701703 237.940492,55.8701703 C233.069237,55.8701703 229.724793,59.4475204 229.724793,65.2428276 L229.724793,82.6287492 C229.724793,85.0613473 227.76175,86.9215694 225.28977,86.9215694 C222.890495,86.9215694 220.927452,85.0613473 220.927452,82.6287492 Z M290.207845,82.6287492 L290.207845,52.7221022 C290.207845,50.2895041 292.098183,48.357735 294.570163,48.357735 C297.042143,48.357735 299.005186,50.2895041 299.005186,52.7221022 L299.005186,54.5107772 C301.477166,51.1480681 304.82161,48 310.710739,48 C316.236342,48 320.162428,50.6472391 322.198176,54.6538712 C325.251799,50.6472391 329.323296,48 335.139719,48 C343.500829,48 348.590199,53.2229312 348.590199,62.4524945 L348.590199,82.6287492 C348.590199,85.0613473 346.699862,86.9215694 344.227882,86.9215694 C341.755901,86.9215694 339.792858,85.0613473 339.792858,82.6287492 L339.792858,65.0997336 C339.792858,59.0897854 336.957352,55.8701703 332.013392,55.8701703 C327.214842,55.8701703 323.797693,59.1613324 323.797693,65.2428276 L323.797693,82.6287492 C323.797693,85.0613473 321.83465,86.9215694 319.435375,86.9215694 C316.963395,86.9215694 315.000352,85.0613473 315.000352,82.6287492 L315.000352,65.0281866 C315.000352,59.1613324 312.09214,55.8701703 307.220885,55.8701703 C302.34963,55.8701703 299.005186,59.4475204 299.005186,65.2428276 L299.005186,82.6287492 C299.005186,85.0613473 297.042143,86.9215694 294.570163,86.9215694 C292.170888,86.9215694 290.207845,85.0613473 290.207845,82.6287492 Z M360.26667,82.5889271 L360.26667,52.4048529 C360.26667,49.949689 362.106599,48 364.51266,48 C366.91872,48 368.829415,49.949689 368.829415,52.4048529 L368.829415,82.5889271 C368.829415,85.0440911 366.91872,86.9215694 364.51266,86.9215694 C362.177365,86.9215694 360.26667,85.0440911 360.26667,82.5889271 Z M380.505886,82.6287492 L380.505886,52.7221022 C380.505886,50.2895041 382.396224,48.357735 384.868204,48.357735 C387.340184,48.357735 389.303227,50.2895041 389.303227,52.7221022 L389.303227,54.5107772 C391.775207,51.1480681 395.119651,48 401.00878,48 C406.534383,48 410.460469,50.6472391 412.496217,54.6538712 C415.54984,50.6472391 419.621336,48 425.43776,48 C433.79887,48 438.88824,53.2229312 438.88824,62.4524945 L438.88824,82.6287492 C438.88824,85.0613473 436.997903,86.9215694 434.525923,86.9215694 C432.053942,86.9215694 430.090899,85.0613473 430.090899,82.6287492 L430.090899,65.0997336 C430.090899,59.0897854 427.255393,55.8701703 422.311432,55.8701703 C417.512883,55.8701703 414.095734,59.1613324 414.095734,65.2428276 L414.095734,82.6287492 C414.095734,85.0613473 412.132691,86.9215694 409.733416,86.9215694 C407.261436,86.9215694 405.298393,85.0613473 405.298393,82.6287492 L405.298393,65.0281866 C405.298393,59.1613324 402.390181,55.8701703 397.518926,55.8701703 C392.647671,55.8701703 389.303227,59.4475204 389.303227,65.2428276 L389.303227,82.6287492 C389.303227,85.0613473 387.340184,86.9215694 384.868204,86.9215694 C382.468929,86.9215694 380.505886,85.0613473 380.505886,82.6287492 Z"/>
    <g transform="translate(5 7)">
      <rect width="120" height="120" fill="#FFF" rx="24"/>
      <path fill="#FC8EAC" d="M74.5139482,81.2081516 C73.9900884,81.5460783 73.4721497,81.8592263 72.9607143,82.149546 C72.8651625,82.2057879 72.7690938,82.2620415 72.6725063,82.3183066 L72.6714113,82.3117352 C56.4391823,91.2979434 46.93382,77.4386198 63.0389713,104 C-11.1533735,78.7055269 55.2149511,19.210872 76.1805411,55.4495633 C76.0307736,46.4228624 56.3502756,36.7772863 60.3623493,25.403274 C65.6052581,10.5399103 87.9474335,15.4271762 87.3542562,25.403274 C93.3913932,35.4073345 92.3206029,41.8070265 84.1418851,44.6023501 C87.0228395,40.6208468 86.1657689,36.164003 81.5706733,31.2318186 C75.5454987,31.2318186 69.7635381,20.2456257 67.2669326,27.1736155 C63.5623337,37.4537436 111.196715,58.298665 74.5139482,81.2081516 Z"/>
    </g>
  </g>
</svg>
